<?xml version="1.0" encoding="UTF-8"?>
<!DOCTYPE svg PUBLIC "-//W3C//DTD SVG 1.1//EN" "http://www.w3.org/Graphics/SVG/1.1/DTD/svg11.dtd">
<svg xmlns="http://www.w3.org/2000/svg" version="1.1" width="512px" height="512px" style="shape-rendering:geometricPrecision; text-rendering:geometricPrecision; image-rendering:optimizeQuality; fill-rule:evenodd; clip-rule:evenodd" xmlns:xlink="http://www.w3.org/1999/xlink">
<g><path style="opacity:0.999" fill="#fdfdfd" d="M 330.5,511.5 C 280.833,511.5 231.167,511.5 181.5,511.5C 186.592,509.066 189.925,505.066 191.5,499.5C 192.497,479.34 192.83,459.007 192.5,438.5C 190.901,438.232 189.568,438.566 188.5,439.5C 170.345,442.473 152.345,441.64 134.5,437C 124.606,433.104 116.44,426.938 110,418.5C 104.537,404.9 97.5367,392.233 89,380.5C 83.7374,375.235 77.9041,370.735 71.5,367C 64.6878,358.499 66.8544,354.333 78,354.5C 92.4766,356.738 104.477,363.404 114,374.5C 130.864,408.004 156.697,417.504 191.5,403C 193.385,389.995 198.719,378.661 207.5,369C 181.969,366.934 158.302,359.267 136.5,346C 114.587,330.371 101.087,309.205 96,282.5C 92.1044,263.634 91.1044,244.634 93,225.5C 94.5826,216.168 97.2492,207.168 101,198.5C 105.765,189.287 111.265,180.621 117.5,172.5C 109.946,149.413 111.28,126.913 121.5,105C 128.649,104.088 135.649,104.755 142.5,107C 160.049,113.192 176.549,121.358 192,131.5C 234.333,119.5 276.667,119.5 319,131.5C 336.498,119.215 355.664,110.382 376.5,105C 380.833,104.333 385.167,104.333 389.5,105C 399.654,126.97 400.988,149.47 393.5,172.5C 402.116,183.388 408.949,195.388 414,208.5C 422.823,244.632 419.49,279.632 404,313.5C 390.462,336.358 370.962,351.858 345.5,360C 331.442,364.278 317.109,367.278 302.5,369C 311.209,376.915 316.375,386.748 318,398.5C 319.284,432.47 319.951,466.47 320,500.5C 320.557,502.615 321.391,504.615 322.5,506.5C 325.277,508.179 327.944,509.845 330.5,511.5 Z"/></g>
<g><path style="opacity:0.999" fill="#181818" d="M 89.5,363.5 C 91.5273,363.338 93.5273,363.505 95.5,364C 97.1667,367.333 96.1667,368.667 92.5,368C 90.8588,366.871 89.8588,365.371 89.5,363.5 Z"/></g>
<g><path style="opacity:0.998" fill="#0e0e0e" d="M 101.5,371.5 C 106.097,372.217 107.764,374.717 106.5,379C 101.466,378.794 99.7995,376.294 101.5,371.5 Z"/></g>
<g><path style="opacity:1" fill="#111111" d="M 111.5,384.5 C 116.289,385.267 118.289,387.934 117.5,392.5C 115.833,393.833 114.167,393.833 112.5,392.5C 109.49,389.934 109.157,387.268 111.5,384.5 Z"/></g>
<g><path style="opacity:0.999" fill="#0f0f0f" d="M 123.5,399.5 C 129.541,399.196 131.874,401.862 130.5,407.5C 126.035,408.763 123.035,407.097 121.5,402.5C 122.193,401.482 122.859,400.482 123.5,399.5 Z"/></g>
<g><path style="opacity:1" fill="#0e0e0e" d="M 140.5,410.5 C 143.32,410.248 145.986,410.748 148.5,412C 150.143,415.143 149.309,417.309 146,418.5C 140.404,418.21 138.571,415.543 140.5,410.5 Z"/></g>
<g><path style="opacity:0.999" fill="#0a0a0a" d="M 181.5,411.5 C 183.857,411.337 186.19,411.503 188.5,412C 189.76,413.814 189.76,415.647 188.5,417.5C 185.897,418.562 183.23,418.728 180.5,418C 179.144,415.586 179.478,413.419 181.5,411.5 Z"/></g>
<g><path style="opacity:0.999" fill="#0d0d0d" d="M 161.5,414.5 C 164.187,414.336 166.854,414.503 169.5,415C 171.24,419.452 169.573,421.619 164.5,421.5C 160.676,420.444 159.676,418.11 161.5,414.5 Z"/></g>
<g><path style="opacity:0.56" fill="#b6b6b6" d="M 188.5,439.5 C 189.568,438.566 190.901,438.232 192.5,438.5C 192.83,459.007 192.497,479.34 191.5,499.5C 191.5,479.5 191.5,459.5 191.5,439.5C 190.5,439.5 189.5,439.5 188.5,439.5 Z"/></g>
</svg>
