<?xml version="1.0" standalone="no"?>
<!DOCTYPE svg PUBLIC "-//W3C//DTD SVG 20010904//EN"
 "http://www.w3.org/TR/2001/REC-SVG-20010904/DTD/svg10.dtd">
<svg version="1.0" xmlns="http://www.w3.org/2000/svg"
 width="512.000000pt" height="512.000000pt" viewBox="0 0 512.000000 512.000000"
 preserveAspectRatio="xMidYMid meet">

<g transform="translate(0.000000,512.000000) scale(0.100000,-0.100000)"
fill="#000000" stroke="none">
<path d="M2825 4258 c-13 -46 -250 -814 -524 -1708 -275 -893 -498 -1626 -496
-1628 6 -6 479 -151 483 -148 6 7 1053 3418 1050 3422 -7 6 -459 144 -474 144
-8 0 -23 -32 -39 -82z"/>
<path d="M638 3203 l-638 -638 642 -642 c353 -353 642 -641 642 -640 1 2 80
82 176 180 l175 177 -460 460 -460 460 458 458 c251 251 457 462 457 467 0 10
-340 355 -350 355 -3 0 -292 -287 -642 -637z"/>
<path d="M3662 3667 c-94 -95 -172 -177 -172 -182 0 -5 206 -216 457 -467
l458 -458 -460 -460 -460 -460 175 -177 c96 -98 175 -178 176 -180 0 -1 289
287 642 640 l642 642 -638 638 c-350 350 -639 637 -642 637 -3 0 -83 -78 -178
-173z"/>
</g>
</svg>
