<?xml version="1.0" standalone="no"?>
<!DOCTYPE svg PUBLIC "-//W3C//DTD SVG 20010904//EN"
 "http://www.w3.org/TR/2001/REC-SVG-20010904/DTD/svg10.dtd">
<svg version="1.0" xmlns="http://www.w3.org/2000/svg"
 width="512.000000pt" height="512.000000pt" viewBox="0 0 512.000000 512.000000"
 preserveAspectRatio="xMidYMid meet">

<g transform="translate(0.000000,512.000000) scale(0.100000,-0.100000)"
fill="#000000" stroke="none">
<path d="M2480 5104 c-45 -20 -87 -59 -111 -106 -18 -36 -19 -78 -19 -1386 0
-742 -3 -1492 -7 -1666 l-6 -317 -321 320 c-214 213 -333 325 -358 336 -50 20
-124 19 -173 -4 -106 -49 -154 -173 -106 -276 13 -27 151 -171 417 -436 376
-374 403 -398 474 -432 98 -47 185 -67 290 -67 106 0 193 20 290 67 70 34 100
61 473 432 435 433 434 431 425 536 -9 108 -100 188 -212 187 -29 0 -69 -8
-87 -17 -19 -9 -179 -162 -356 -338 l-323 -322 0 1673 c0 1626 -1 1674 -19
1710 -53 102 -172 149 -271 106z"/>
<path d="M162 1700 c-57 -13 -108 -55 -136 -111 l-26 -53 0 -480 c0 -544 3
-566 71 -706 82 -164 253 -296 435 -335 104 -22 4004 -22 4109 0 181 38 349
168 433 335 69 139 72 160 72 706 l0 480 -26 53 c-62 123 -217 155 -322 66
-79 -68 -76 -49 -82 -601 l-5 -491 -27 -39 c-15 -21 -44 -50 -65 -64 l-37 -25
-1996 0 -1996 0 -37 25 c-21 14 -50 43 -65 64 l-27 39 -5 491 c-4 351 -8 499
-17 518 -24 54 -83 107 -136 123 -55 16 -66 17 -115 5z"/>
</g>
</svg>
