<?xml version="1.0" encoding="UTF-8"?>
<!DOCTYPE svg PUBLIC "-//W3C//DTD SVG 1.1//EN" "http://www.w3.org/Graphics/SVG/1.1/DTD/svg11.dtd">
<svg xmlns="http://www.w3.org/2000/svg" version="1.1" width="512px" height="512px" style="shape-rendering:geometricPrecision; text-rendering:geometricPrecision; image-rendering:optimizeQuality; fill-rule:evenodd; clip-rule:evenodd" xmlns:xlink="http://www.w3.org/1999/xlink">
<g><path style="opacity:0.997" fill="#fcfcfc" d="M 107.5,68.5 C 139.532,67.6981 157.532,83.1981 161.5,115C 158.667,143.167 143.167,158.667 115,161.5C 90.1443,159.639 74.811,146.639 69,122.5C 67.0071,93.6928 79.8404,75.6928 107.5,68.5 Z"/></g>
<g><path style="opacity:0.999" fill="#fafafa" d="M 280.5,204.5 C 280.168,214.522 280.501,224.522 281.5,234.5C 282.107,234.376 282.44,234.043 282.5,233.5C 286.89,226.272 292.556,220.105 299.5,215C 334.31,192.675 368.31,194.009 401.5,219C 422.425,237.017 433.592,259.851 435,287.5C 435.83,336.737 435.664,385.904 434.5,435C 408.928,435.828 383.428,435.661 358,434.5C 357.976,386.129 357.309,337.796 356,289.5C 348.564,268.525 333.73,259.359 311.5,262C 297.071,266.096 287.571,275.263 283,289.5C 281.691,337.796 281.024,386.129 281,434.5C 255.572,435.661 230.072,435.828 204.5,435C 203.335,358.237 203.169,281.403 204,204.5C 229.598,203.168 255.098,203.168 280.5,204.5 Z"/></g>
<g><path style="opacity:1" fill="#f9f9f9" d="M 76.5,203.5 C 102.074,203.172 127.574,203.505 153,204.5C 153.831,281.403 153.665,358.237 152.5,435C 126.928,435.828 101.428,435.661 76,434.5C 75.17,357.43 75.3367,280.43 76.5,203.5 Z"/></g>
<g><path style="opacity:0.506" fill="#c8c8c8" d="M 280.5,204.5 C 281.167,214.167 281.833,223.833 282.5,233.5C 282.44,234.043 282.107,234.376 281.5,234.5C 280.501,224.522 280.168,214.522 280.5,204.5 Z"/></g>
</svg>
